# xmcd CD database file
#
# Track frame offsets:
#	150
#	12872
#	26251
#	38438
#	50750
#	63208
#	79957
#	94308
#	110696
#	134263
#	155629
#	169203
#	190863
#	202782
#	215067
#	230860
#	241387
#	251144
#	262239
#	280190
#
# Disc length: 3938 seconds
#
# Revision: 0
# Processed by: cddbd v1.5.2PL0 Copyright (c) Steve Scherf et al.
# Submitted via: CDex 1.79
#
DISCID=240f6014
DTITLE=Spirit Of Jazz Divas - CD3
DYEAR=2012
DGENRE=Jazz
TTITLE0=Ella Fitzgerald - Lullaby Of Birdland
TTITLE1=Rosemary Clooney - Sophisticated Lady
TTITLE2=Abbey Lincoln - Softly As In A Morning Sunrise
TTITLE3=Anita O'Day - Springs Is Here
TTITLE4=Blossom Dearie - Lover Man
TTITLE5=Chris Connor - The Lady Sings The Blues
TTITLE6=Dinah Shore - That Old Feeling
TTITLE7=Lena Horne - Everytime We Say Goodbye
TTITLE8=Helen Merrill - Don't Explain
TTITLE9=Jeri Southern - It's All Right With Me
TTITLE10=Pearl Bailey - It Takes Two To Tango
TTITLE11=Sarah Vaughan - Embraceable You
TTITLE12=Doris Day - Bewitched
TTITLE13=Judy Garland - Danny Boy
TTITLE14=Marilyn Monroe - Diamonds Are A Girl's Best Friend
TTITLE15=Rosemary Clooney - I Wish I Were In Love Again
TTITLE16=Nancy Wilson - The More I See You
TTITLE17=June Christy - Baubles, Bangles And Beads
TTITLE18=Toni Tennille - I Got It Bad And That Ain't Good
TTITLE19=Billie Holiday - I'm A Fool To Want You
EXTD=YEAR: 2012
EXTT0=
EXTT1=
EXTT2=
EXTT3=
EXTT4=
EXTT5=
EXTT6=
EXTT7=
EXTT8=
EXTT9=
EXTT10=
EXTT11=
EXTT12=
EXTT13=
EXTT14=
EXTT15=
EXTT16=
EXTT17=
EXTT18=
EXTT19=
PLAYORDER=
